<?xml version="1.0" encoding="UTF-8"?>
<svg xmlns="http://www.w3.org/2000/svg" width="190" height="180" viewBox="245 330 190 180">
    <g>
        <path fill="#2E95D2" d="M407.5,369.1c0,0-6.8-7.4-22.8-6.7c-16,0.7-33.1-9-41.5-21.5c-12.5-18.5-73.1-6.7-61.7,33.5
           s-12.7,57-16.1,92.5c-3.4,35.5,59.7,59,74.4,28.2s26.9-67.7,52.6-79.8C418.2,403.3,426.3,390.6,407.5,369.1z"/>
        <path fill="#40A3DB" d="M325.6,395.6c-27.9,0-38.6-1.2-43.6-19.2c10.1,38.9-13.3,55.7-16.6,90.6c-0.3,2.9-0.1,5.6,0.4,8.3
           c3.7-2.9,9.4-6,18.4-8.7c24.6-7.4,42.4-9.4,57.3-26.8S354.4,395.6,325.6,395.6z"/>
        <path fill="#40A3DB" d="M345.9,376.4c-0.2,11.8,23.5,24.1,43.5-13.9c-1.5-0.1-3-0.1-4.7-0.1c-16,0.7-33.1-9-41.5-21.5
           C343.1,341,346.1,364.6,345.9,376.4z"/>
        <path fill="#1B86C8" d="M392.4,415.4c23.9-11.2,32.5-22.9,18.8-41.6c1.2,8.2,1.1,17.6-3.9,23.1c-10.1,11.4-30.2,6.8-45.6,32.6
           c-15.4,25.8-24.8,57.9-42.9,65c-10,3.9-26.4,3.5-39.2,2.3c18.7,15.3,50.2,19,60.1-1.6C354.5,464.3,366.6,427.4,392.4,415.4z"/>
    </g>
</svg>