<?xml version="1.0" encoding="UTF-8"?>
<svg xmlns="http://www.w3.org/2000/svg" width="115" height="100" viewBox="672 108 115 100">
    <g>
        <path fill="#955BA5" d="M675.5,137.1c0,0,3.4-18.8,28.8-25.5s71.1-6.7,77.1,9.4s8.6,77.1-17.5,83.8c-26.1,6.7-32.1-29.5-41.5-36.9
           C713.1,160.6,668.1,167.3,675.5,137.1z"/>
        <path fill="#884B9D" d="M783.5,174.9c-10.1,17.8-25.8,21.5-31.3,6.4c-7.4-20.1-18.7-27.5-48.2-28.8c-14.5-0.6-23.6-4.4-29.3-8.1
           c1.3,21.7,39.2,16.8,47.7,23.5c9.4,7.4,15.4,43.6,41.5,36.9C774.9,202,780.8,189.6,783.5,174.9z"/>
    </g>
</svg>