<?xml version="1.0" encoding="UTF-8"?>
<svg xmlns="http://www.w3.org/2000/svg" width="110" height="180" viewBox="490 328 110 180">
    <g>
        <path fill="#4EBA6E" d="M495,499.4c0,0-21.7-33-0.7-87.4c21-54.4,67.6-85.6,77.8-80.4s-4,38.1,14.7,56.7
           c18.7,18.6,13.7,14.9,0.8,48.1c-12.9,33.3-10.7,53.8-41.8,61.7S505.5,513,495,499.4z"/>
        <path fill="#75C485" d="M563.9,367.1c-17.1,20-61.9,34.3-52,72.6c9.9,38.3,38,49.2,48.4,18.7c10.3-30.5,24.4-64.8,33.2-63.4
           c-1.7-1.9-3.9-4.1-6.6-6.7c-12.8-12.7-10.2-32.1-10.6-44.8C575.7,348.5,573,356.4,563.9,367.1z"/>
    </g>
</svg>